<svg width="429" height="79" viewBox="0 0 429 79" fill="none" xmlns="http://www.w3.org/2000/svg">
<rect x="419" y="72" width="7.00002" height="419" rx="3.50001" transform="rotate(90 419 72)" fill="#C4C4C4"/>
<rect x="419" y="72" width="7.00002" height="419" rx="3.50001" transform="rotate(90 419 72)" fill="#FC5C65"/>
<path d="M38.875 54.75L31.625 48.0625C29.2812 50.9375 25.9062 52.7812 22.1562 52.7812C17.0312 52.7812 13.8438 49.3438 13.8438 42.7812C13.8438 34.5938 18.8125 25.8125 26.3438 25.8125C30.25 25.8125 32.875 28.1562 34.75 31.625L42.9375 25.4688C38.5938 18.3438 32.8438 15.9375 26.7812 15.9375C12.9688 15.9375 3.0625 28.3438 3.0625 43.0625C3.0625 56.25 11.0312 62.5938 21.5 62.5938C28.75 62.5938 34.6875 59.5625 38.8438 54.75H38.875ZM68.625 15.9688C53.9688 15.9688 44.5312 28.875 44.5312 43.2812C44.5312 55.5938 51.875 62.5938 63 62.5938C78.2812 62.5938 87.125 50.125 87.125 35.0938C87.125 23.0312 79.6562 15.9688 68.625 15.9688ZM63.7812 53.0625C58.8438 53.0625 55.1875 49.7812 55.1875 42.6875C55.1875 33.9062 60.4688 25.5312 67.625 25.5312C72.75 25.5312 76.4375 28.7188 76.4375 35.75C76.4375 45.2188 71.25 53.0625 63.7812 53.0625ZM118.938 52.9062H102.188L106.625 16.5625H96.3125L90.75 62H117.812L118.938 52.9062ZM147.312 15.9688C132.656 15.9688 123.219 28.875 123.219 43.2812C123.219 55.5938 130.562 62.5938 141.688 62.5938C156.969 62.5938 165.812 50.125 165.812 35.0938C165.812 23.0312 158.344 15.9688 147.312 15.9688ZM142.469 53.0625C137.531 53.0625 133.875 49.7812 133.875 42.6875C133.875 33.9062 139.156 25.5312 146.312 25.5312C151.438 25.5312 155.125 28.7188 155.125 35.75C155.125 45.2188 149.938 53.0625 142.469 53.0625ZM194.906 45.2812C200.844 42.5 204.094 36.6562 204.094 29.1562C204.094 21.8438 200.312 16.5625 191.25 16.5625H175L169.438 62H179.5L181.312 47.125H184.812L191.062 62H202.469L194.875 45.4375L194.906 45.2812ZM183.938 25.625H188.656C191.219 25.625 193.406 27.0312 193.406 30.3125C193.406 34.8438 190.688 38.1562 186.438 38.1562H182.406L183.938 25.625Z" fill="#FC5C65"/>
<path d="M237.375 62.5C244.625 62.5 253.031 58.3125 253.031 48.9375C253.031 40.1562 246.781 38 238.969 34.9375C233.469 32.8125 230.406 31.6562 230.469 28.3438C230.531 24.9688 233.312 23.0312 236.812 23.0312C239.938 23.0312 243.562 24.5938 247.281 27.6875L251.875 21.625C247.281 18 242.188 16 236.812 16.0312C228.969 16.0625 222.469 21.5938 222.469 28.75C222.469 37.0312 229.312 40.125 236.188 42.5625C241.938 44.5938 244.969 45.875 244.969 49.8125C244.969 53.1875 242.406 55.375 237.406 55.375C233.531 55.375 229.062 53.375 225.75 49.375L220.875 55.375C225.656 60.2812 231.562 62.5 237.375 62.5ZM290.312 62H298.375L281.312 16.5625H273.781L256.844 62H264.875L268.312 52.2188H286.875L290.312 62ZM270.656 45.5312L277.562 25.8438H277.594L284.5 45.5312H270.656ZM328.594 16.5625L316.562 50.9375H316.406L304.469 16.5625H296.125L313.125 62H319.938L336.875 16.5625H328.594ZM344.031 62H373.969V55.0938H351.75V42.9375H368.656V36H351.75V23.4688H372.656V16.5625H344.062L344.031 62ZM416.875 62L405.25 45.0938V44.9688C411.406 43.2812 415.219 38.75 415.219 31.2812C415.219 22.8125 410.469 16.5312 399.719 16.5312H382.938V62H390.625V45.7812H396.75L407.594 62H416.875ZM390.625 23.4688H398.531C404.094 23.4688 407.219 26.3438 407.219 31.125C407.219 35.6562 404.219 38.8438 398 38.8438H390.625V23.4688Z" fill="#2F3640"/>
</svg>
